<svg xmlns="http://www.w3.org/2000/svg" version="1.1" xmlns:xlink="http://www.w3.org/1999/xlink" width="1000" height="1000"><style>
    #light-icon {
      display: inline;
    }
    #dark-icon {
      display: none;
    }

    @media (prefers-color-scheme: dark) {
      #light-icon {
        display: none;
      }
      #dark-icon {
        display: inline;
      }
    }
  </style><g id="light-icon"><svg xmlns="http://www.w3.org/2000/svg" version="1.1" xmlns:xlink="http://www.w3.org/1999/xlink" width="1000" height="1000"><g><g transform="matrix(0.9259259259259259,0,0,0.9259259259259259,0,218.77314814814815)"><svg xmlns="http://www.w3.org/2000/svg" version="1.1" id="Layer_1" viewBox="0 0 1080 607.45" width="1080" height="607.45"><defs>
    <style>
      .st0 {
        fill: #121212;
      }

      .st1 {
        fill: #939598;
      }
    </style>
  </defs><path class="st0" d="M535.82,74.41c-25.76,7.83-51.61,17.06-77.37,27.5-128.8,52.04-231.75,124.27-291.19,197.64-2.35,2.78-4.53,5.66-6.7,8.44h40.12c2.52-2.78,5.05-5.66,7.66-8.44,58.57-62.75,151.34-124.97,261.51-169.53,22.02-8.88,44.04-16.8,65.97-23.76,2.87-.96,5.66-1.83,8.44-2.7v-31.68c-2.78.78-5.66,1.65-8.44,2.52Z"></path><path class="st0" d="M987.23,219.39c0,37.86-27.76,69.1-64.05,74.84-1.31,1.74-2.61,3.57-4,5.31-2.09,2.78-4.35,5.66-6.61,8.44-59.44,73.36-162.22,145.51-291.02,197.55-26.02,10.53-51.87,19.76-77.28,27.59-2.87.87-5.66,1.74-8.44,2.52-74.23,22.19-144.81,33.16-206.34,33.16-105.82,0-185.02-32.29-210.34-95.03-19.84-49.08-3.13-107.48,41.42-165.79h40.12c-49.17,55.7-70.93,111.13-53.43,154.39,33.59,83.2,202.86,98.25,388.57,41.42,2.78-.87,5.66-1.74,8.44-2.7,21.84-6.87,43.86-14.79,65.88-23.67,110.18-44.56,202.86-106.78,261.34-169.44,2.7-2.87,5.22-5.66,7.74-8.44,2.44-2.87,4.87-5.66,7.22-8.44-29.76-10.36-51.17-38.47-51.17-71.71,0-41.95,34.03-75.97,75.97-75.97,7.66,0,15.06,1.13,22.02,3.22-.17-.52-.35-1.04-.52-1.57-17.67-43.69-75.8-71.1-159.43-75.19-68.32-3.31-147.6,8.53-229.05,33.68v-31.68c81.63-24.37,161.26-35.68,230.53-32.29,97.38,4.7,163.52,38.12,186.06,94.08,4.7,11.57,7.22,23.76,7.92,36.2,11.49,13.31,18.45,30.55,18.45,49.52Z"></path><path class="st1" d="M544.26,533.13v74.32h-8.44v-71.8c2.78-.78,5.57-1.65,8.44-2.52Z"></path><path class="st1" d="M879.23,299.55c-2.52,2.78-5.05,5.57-7.74,8.44h-327.22v193.11c-2.78.96-5.66,1.83-8.44,2.7v-195.81H0v-8.44h535.82V0h8.44v299.55h334.97Z"></path><path class="st1" d="M1080,299.55v8.44h-167.44c2.26-2.78,4.53-5.66,6.61-8.44h160.83Z"></path></svg></g></g></svg></g><g id="dark-icon"><svg xmlns="http://www.w3.org/2000/svg" version="1.1" xmlns:xlink="http://www.w3.org/1999/xlink" width="1000" height="1000"><g><g transform="matrix(0.9259259259259259,0,0,0.9259259259259259,0,218.77314814814815)"><svg xmlns="http://www.w3.org/2000/svg" version="1.1" id="Layer_1" viewBox="0 0 1080 607.45" width="1080" height="607.45"><defs>
    <style>
      .st0 {
        fill: #fffef9;
      }

      .st1 {
        fill: #fff;
      }

      .st2 {
        fill: #939598;
      }
    </style>
  </defs><path class="st1" d="M535.82,74.41c-25.76,7.83-51.61,17.06-77.37,27.5-128.8,52.04-231.75,124.27-291.19,197.64-2.35,2.78-4.53,5.66-6.7,8.44h40.12c2.52-2.78,5.05-5.66,7.66-8.44,58.57-62.75,151.34-124.97,261.51-169.53,22.02-8.88,44.04-16.8,65.97-23.76,2.87-.96,5.66-1.83,8.44-2.7v-31.68c-2.78.78-5.66,1.65-8.44,2.52Z"></path><path class="st0" d="M987.23,219.39c0,37.86-27.76,69.1-64.05,74.84-1.31,1.74-2.61,3.57-4,5.31-2.09,2.78-4.35,5.66-6.61,8.44-59.44,73.36-162.22,145.51-291.02,197.55-26.02,10.53-51.87,19.76-77.28,27.59-2.87.87-5.66,1.74-8.44,2.52-74.23,22.19-144.81,33.16-206.34,33.16-105.82,0-185.02-32.29-210.34-95.03-19.84-49.08-3.13-107.48,41.42-165.79h40.12c-49.17,55.7-70.93,111.13-53.43,154.39,33.59,83.2,202.86,98.25,388.57,41.42,2.78-.87,5.66-1.74,8.44-2.7,21.84-6.87,43.86-14.79,65.88-23.67,110.18-44.56,202.86-106.78,261.34-169.44,2.7-2.87,5.22-5.66,7.74-8.44,2.44-2.87,4.87-5.66,7.22-8.44-29.76-10.36-51.17-38.47-51.17-71.71,0-41.95,34.03-75.97,75.97-75.97,7.66,0,15.06,1.13,22.02,3.22-.17-.52-.35-1.04-.52-1.57-17.67-43.69-75.8-71.1-159.43-75.19-68.32-3.31-147.6,8.53-229.05,33.68v-31.68c81.63-24.37,161.26-35.68,230.53-32.29,97.38,4.7,163.52,38.12,186.06,94.08,4.7,11.57,7.22,23.76,7.92,36.2,11.49,13.31,18.45,30.55,18.45,49.52Z"></path><path class="st2" d="M544.26,533.13v74.32h-8.44v-71.8c2.78-.78,5.57-1.65,8.44-2.52Z"></path><path class="st2" d="M879.23,299.55c-2.52,2.78-5.05,5.57-7.74,8.44h-327.22v193.11c-2.78.96-5.66,1.83-8.44,2.7v-195.81H0v-8.44h535.82V0h8.44v299.55h334.97Z"></path><path class="st2" d="M1080,299.55v8.44h-167.44c2.26-2.78,4.53-5.66,6.61-8.44h160.83Z"></path></svg></g></g></svg></g></svg>